Dip1990




     Transformers Revenge Of The Fallen [2009] [Dual-Audio] [English+Hindi]_Dip1990


General
Complete name                    : Transformers Revenge Of The Fallen [2009] [Dual-Audio]
IMDB Rating                      : 6.2/10   63,704 votes
Format                           : Matroska
File size                        : 2.16 GiB
Duration                         : 2h 29mn
Overall bit rate                 : 2 064 Kbps
Encoded date                     : UTC 2010-08-11 14:55:50
Writing application              : mkvmerge v4.2.0 ('No Talking') built on Jul 28 2010 18:38:23
Writing library                  : libebml v1.0.0 + libmatroska v1.0.0

Video
ID                               : 1
Format                           : AVC
Format/Info                      : Advanced Video Codec
Format profile                   : Main@L4.1
Format settings, CABAC           : Yes
Format settings, ReFrames        : 4 frames
Muxing mode                      : Container profile=Unknown@4.1
Codec ID                         : V_MPEG4/ISO/AVC
Duration                         : 2h 29mn
Bit rate                         : 1 750 Kbps
Width                            : 1 280 pixels
Height                           : 544 pixels
Display aspect ratio             : 2.35:1
Frame rate                       : 23.976 fps
Color space                      : YUV
Chroma subsampling               : 4:2:0
Bit depth                        : 8 bits
Scan type                        : Progressive
Bits/(Pixel*Frame)               : 0.105
Stream size                      : 1.77 GiB (82%)
Title                            : Transformers Revenge Of The Fallen
Writing library                  : x264 core 75 r1259M dd026f2
Encoding settings                : cabac=1 / ref=4 / deblock=1:0:0 / analyse=0x1:0x111 / me=umh / subme=9 / psy=1 / psy_rd=1.0:0.0 / mixed_ref=1 / me_range=16 / chroma_me=1 / trellis=2 / 8x8dct=0 / cqm=0 / deadzone=21,11 / chroma_qp_offset=-2 / threads=3 / slices=3 / nr=0 / decimate=1 / mbaff=0 / bframes=3 / b_pyramid=0 / b_adapt=2 / b_bias=0 / direct=1 / wpredb=1 / keyint=250 / keyint_min=25 / scenecut=40 / rc_lookahead=50 / rc=2pass / mbtree=1 / bitrate=1750 / ratetol=1.0 / qcomp=0.60 / qpmin=10 / qpmax=51 / qpstep=4 / cplxblur=20.0 / qblur=0.5 / ip_ratio=1.40 / aq=1:1.00

Audio #1
ID                               : 2
Format                           : Vorbis
Format settings, Floor           : 1
Codec ID                         : A_VORBIS
Duration                         : 2h 29mn
Bit rate mode                    : Constant
Bit rate                         : 112 Kbps
Channel(s)                       : 2 channels
Sampling rate                    : 48.0 KHz
Stream size                      : 120 MiB (5%)
Title                            : Transformers Revenge Of The Fallen - English
Writing library                  : aoTuV b5a  (UTC 2008-03-30)

Audio #2
ID                               : 3
Format                           : Vorbis
Format settings, Floor           : 1
Codec ID                         : A_VORBIS
Duration                         : 2h 29mn
Bit rate mode                    : Constant
Bit rate                         : 224 Kbps
Channel(s)                       : 2 channels
Sampling rate                    : 48.0 KHz
Stream size                      : 240 MiB (11%)
Title                            : Transformers Revenge Of The Fallen - Hindi
Writing library                  : aoTuV b5a  (UTC 2008-03-30)
Language                         : Hindi

Screens: 
http://img638.imageshack.us/img638/4772/transformersrevengeofthd.jpg 
http://img600.imageshack.us/img600/6199/transformersrevengeofth.jpg 
http://img696.imageshack.us/img696/838/transformersrevengeoftha.jpg 
http://img132.imageshack.us/img132/4673/transformersrevengeofthdr.jpg 
http://img403.imageshack.us/img403/7587/transformersrevengeofthi.jpg 
http://img411.imageshack.us/img411/8371/transformersrevengeoftho.jpg 
http://img204.imageshack.us/img204/7587/transformersrevengeofthi.jpg 
http://img713.imageshack.us/img713/3586/transformersrevengeofthw.jpg

Sample: